<!-- <svg xmlns="http://www.w3.org/2000/svg" version="1.0" width="225.000000pt" height="225.000000pt" viewBox="0 0 225.000000 225.000000" preserveAspectRatio="xMidYMid meet"></svg> -->

<?xml version="1.0" standalone="no"?>
<!DOCTYPE svg PUBLIC "-//W3C//DTD SVG 20010904//EN"
 "http://www.w3.org/TR/2001/REC-SVG-20010904/DTD/svg10.dtd">
<svg version="1.0" xmlns="http://www.w3.org/2000/svg"
 width="225.000000pt" height="225.000000pt" viewBox="0 0 225.000000 225.000000"
 preserveAspectRatio="xMidYMid meet">

<g transform="translate(0.000000,225.000000) scale(0.100000,-0.100000)"
fill="#000000" stroke="none">
<path d="M763 2123 c15 -2 39 -2 55 0 15 2 2 4 -28 4 -30 0 -43 -2 -27 -4z"/>
<path d="M1433 2123 c15 -2 39 -2 55 0 15 2 2 4 -28 4 -30 0 -43 -2 -27 -4z"/>
<path d="M1043 1910 c-68 -41 -85 -111 -49 -201 5 -12 0 -14 -30 -11 -46 6
-79 -12 -99 -54 -11 -24 -13 -39 -5 -59 13 -34 13 -35 -6 -35 -25 0 -74 -56
-74 -84 0 -22 -11 -31 -68 -60 -75 -38 -97 -58 -89 -80 9 -23 181 -102 277
-128 70 -19 111 -23 225 -23 114 0 155 4 225 23 96 26 268 105 277 128 8 23
-21 49 -92 80 -57 26 -64 32 -65 57 0 18 -11 40 -30 59 -27 26 -36 30 -69 25
l-38 -5 14 29 c9 18 12 41 8 59 -7 32 -52 70 -83 70 -19 0 -19 2 -6 40 25 71
-3 143 -68 176 -39 20 -117 18 -155 -6z m94 -206 c-3 -3 -12 -4 -19 -1 -8 3
-5 6 6 6 11 1 17 -2 13 -5z"/>
<path d="M750 1875 c13 -14 26 -25 28 -25 3 0 -5 11 -18 25 -13 14 -26 25 -28
25 -3 0 5 -11 18 -25z"/>
<path d="M1489 1873 l-24 -28 28 24 c25 23 32 31 24 31 -2 0 -14 -12 -28 -27z"/>
<path d="M128 878 c-15 -27 -39 -51 -66 -66 -68 -38 -71 -54 -17 -111 50 -54
54 -74 24 -125 -24 -42 -14 -72 29 -82 80 -17 96 -28 117 -84 22 -59 51 -79
114 -80 27 0 43 -9 77 -44 58 -61 71 -66 146 -59 l64 6 53 -47 c57 -51 86 -57
148 -31 49 21 66 19 123 -13 l49 -27 50 28 c29 16 64 27 86 27 22 0 57 -11 86
-27 l50 -28 49 28 c57 31 74 33 123 12 62 -26 91 -20 148 31 l53 47 64 -6 c75
-7 91 -1 148 60 32 34 47 43 75 43 63 1 92 21 114 80 21 56 37 67 117 84 43
10 52 38 28 85 -11 22 -20 47 -20 55 0 9 20 38 45 66 39 43 44 54 34 71 -6 11
-30 29 -53 39 -32 13 -50 30 -67 62 -22 39 -28 43 -67 46 -23 2 -42 0 -42 -4
0 -3 7 -49 16 -101 l16 -95 -48 -50 c-190 -196 -592 -308 -996 -277 -330 25
-590 122 -742 277 l-48 50 16 95 c9 52 16 97 16 101 0 3 -20 6 -44 6 -42 0
-46 -2 -68 -42z"/>
</g>
</svg>
